{"accessors":[{"bufferView":0,"byteOffset":0,"componentType":5126,"count":24,"max":[1,0.999979,1],"min":[-1,-1,-1],"normalized":false,"type":"VEC3"},{"bufferView":1,"byteOffset":0,"componentType":5126,"count":24,"max":[1,1,0.000074,1],"min":[-1,-0.00003,-0.000031,1],"normalized":false,"type":"VEC4"},{"bufferView":2,"byteOffset":0,"componentType":5126,"count":24,"max":[1,1,1],"min":[-1,-1,-1],"normalized":false,"type":"VEC3"},{"bufferView":3,"byteOffset":0,"componentType":5126,"count":24,"max":[0.874998,1],"min":[0.124987,0],"normalized":false,"type":"VEC2"},{"bufferView":4,"byteOffset":0,"componentType":5125,"count":36,"max":[23],"min":[0],"normalized":false,"type":"SCALAR"},{"bufferView":5,"byteOffset":0,"componentType":5126,"count":48,"max":[0.604987,-0.995301,-0.395012],"min":[0.39501,-2.995281,-0.60499],"normalized":false,"type":"VEC3"},{"bufferView":6,"byteOffset":0,"componentType":5126,"count":48,"max":[1,1,0.000074,1],"min":[-1,-0.000031,-0.00003,1],"normalized":false,"type":"VEC4"},{"bufferView":7,"byteOffset":0,"componentType":5126,"count":48,"max":[1,1,1],"min":[-1,-1,-1],"normalized":false,"type":"VEC3"},{"bufferView":8,"byteOffset":0,"componentType":5126,"count":48,"max":[0.874998,1],"min":[0.124987,0],"normalized":false,"type":"VEC2"},{"bufferView":9,"byteOffset":0,"componentType":5125,"count":108,"max":[47],"min":[0],"normalized":false,"type":"SCALAR"},{"bufferView":10,"byteOffset":0,"componentType":5126,"count":48,"max":[-0.395013,-0.995301,-0.395012],"min":[-0.60499,-2.995281,-0.604991],"normalized":false,"type":"VEC3"},{"bufferView":11,"byteOffset":0,"componentType":5126,"count":48,"max":[1,1,0.000074,1],"min":[-1,-0.000031,-0.00003,1],"normalized":false,"type":"VEC4"},{"bufferView":12,"byteOffset":0,"componentType":5126,"count":48,"max":[1,1,1],"min":[-1,-1,-1],"normalized":false,"type":"VEC3"},{"bufferView":13,"byteOffset":0,"componentType":5126,"count":48,"max":[0.874998,1],"min":[0.124987,0],"normalized":false,"type":"VEC2"},{"bufferView":14,"byteOffset":0,"componentType":5125,"count":108,"max":[47],"min":[0],"normalized":false,"type":"SCALAR"},{"bufferView":15,"byteOffset":0,"componentType":5126,"count":48,"max":[0.604987,-0.995301,0.604987],"min":[0.395009,-2.99528,0.39501],"normalized":false,"type":"VEC3"},{"bufferView":16,"byteOffset":0,"componentType":5126,"count":48,"max":[1,1,0.000074,1],"min":[-1,0.000015,-0.00003,1],"normalized":false,"type":"VEC4"},{"bufferView":17,"byteOffset":0,"componentType":5126,"count":48,"max":[1,1,1],"min":[-1,-1,-1],"normalized":false,"type":"VEC3"},{"bufferView":18,"byteOffset":0,"componentType":5126,"count":48,"max":[0.874998,1],"min":[0.124987,0],"normalized":false,"type":"VEC2"},{"bufferView":19,"byteOffset":0,"componentType":5125,"count":108,"max":[47],"min":[0],"normalized":false,"type":"SCALAR"},{"bufferView":20,"byteOffset":0,"componentType":5126,"count":48,"max":[-0.39501,-0.995301,0.604987],"min":[-0.604991,-2.995281,0.395009],"normalized":false,"type":"VEC3"},{"bufferView":21,"byteOffset":0,"componentType":5126,"count":48,"max":[1,1,0.000074,1],"min":[-1,0.000015,-0.00003,1],"normalized":false,"type":"VEC4"},{"bufferView":22,"byteOffset":0,"componentType":5126,"count":48,"max":[1,1,1],"min":[-1,-1,-1],"normalized":false,"type":"VEC3"},{"bufferView":23,"byteOffset":0,"componentType":5126,"count":48,"max":[0.874998,1],"min":[0.124987,0],"normalized":false,"type":"VEC2"},{"bufferView":24,"byteOffset":0,"componentType":5125,"count":108,"max":[47],"min":[0],"normalized":false,"type":"SCALAR"},{"bufferView":25,"byteOffset":0,"componentType":5126,"count":24,"max":[1.571212,0.27833,0.278337],"min":[1.014538,-0.278337,-0.278337],"normalized":false,"type":"VEC3"},{"bufferView":26,"byteOffset":0,"componentType":5126,"count":24,"max":[1,1,0.000074,1],"min":[-1,-0.00003,-0.000031,1],"normalized":false,"type":"VEC4"},{"bufferView":27,"byteOffset":0,"componentType":5126,"count":24,"max":[1,1,1],"min":[-1,-1,-1],"normalized":false,"type":"VEC3"},{"bufferView":28,"byteOffset":0,"componentType":5126,"count":24,"max":[0.874998,1],"min":[0.124987,0],"normalized":false,"type":"VEC2"},{"bufferView":29,"byteOffset":0,"componentType":5125,"count":36,"max":[23],"min":[0],"normalized":false,"type":"SCALAR"}],"asset":{"generator":"Godot Engine v4.2.2.stable.official@15073afe3856abd2aa1622492fe50026c7d63dc1","version":"2.0"},"bufferViews":[{"buffer":0,"byteLength":288,"byteOffset":0},{"buffer":0,"byteLength":384,"byteOffset":288},{"buffer":0,"byteLength":288,"byteOffset":672},{"buffer":0,"byteLength":192,"byteOffset":960},{"buffer":0,"byteLength":144,"byteOffset":1152},{"buffer":0,"byteLength":576,"byteOffset":1296},{"buffer":0,"byteLength":768,"byteOffset":1872},{"buffer":0,"byteLength":576,"byteOffset":2640},{"buffer":0,"byteLength":384,"byteOffset":3216},{"buffer":0,"byteLength":432,"byteOffset":3600},{"buffer":0,"byteLength":576,"byteOffset":4032},{"buffer":0,"byteLength":768,"byteOffset":4608},{"buffer":0,"byteLength":576,"byteOffset":5376},{"buffer":0,"byteLength":384,"byteOffset":5952},{"buffer":0,"byteLength":432,"byteOffset":6336},{"buffer":0,"byteLength":576,"byteOffset":6768},{"buffer":0,"byteLength":768,"byteOffset":7344},{"buffer":0,"byteLength":576,"byteOffset":8112},{"buffer":0,"byteLength":384,"byteOffset":8688},{"buffer":0,"byteLength":432,"byteOffset":9072},{"buffer":0,"byteLength":576,"byteOffset":9504},{"buffer":0,"byteLength":768,"byteOffset":10080},{"buffer":0,"byteLength":576,"byteOffset":10848},{"buffer":0,"byteLength":384,"byteOffset":11424},{"buffer":0,"byteLength":432,"byteOffset":11808},{"buffer":0,"byteLength":288,"byteOffset":12240},{"buffer":0,"byteLength":384,"byteOffset":12528},{"buffer":0,"byteLength":288,"byteOffset":12912},{"buffer":0,"byteLength":192,"byteOffset":13200},{"buffer":0,"byteLength":144,"byteOffset":13392}],"buffers":[{"byteLength":13536,"uri":"SemiHorse0.bin"}],"extensionsUsed":["GODOT_single_root"],"materials":[{"extensions":{},"pbrMetallicRoughness":{"baseColorFactor":[0.99999988079071,0.99999988079071,0.99999988079071,1],"metallicFactor":0,"roughnessFactor":1}},{"extensions":{},"pbrMetallicRoughness":{"baseColorFactor":[0.99999988079071,0.99999988079071,0.99999988079071,1],"metallicFactor":0,"roughnessFactor":1}},{"extensions":{},"pbrMetallicRoughness":{"baseColorFactor":[0.99999988079071,0.99999988079071,0.99999988079071,1],"metallicFactor":0,"roughnessFactor":1}},{"extensions":{},"pbrMetallicRoughness":{"baseColorFactor":[0.99999988079071,0.99999988079071,0.99999988079071,1],"metallicFactor":0,"roughnessFactor":1}},{"extensions":{},"pbrMetallicRoughness":{"baseColorFactor":[0.99999988079071,0.99999988079071,0.99999988079071,1],"metallicFactor":0,"roughnessFactor":1}},{"extensions":{},"pbrMetallicRoughness":{"baseColorFactor":[0.99999988079071,0.99999988079071,0.99999988079071,1],"metallicFactor":0,"roughnessFactor":1}}],"meshes":[{"extras":{"targetNames":[]},"primitives":[{"attributes":{"NORMAL":2,"POSITION":0,"TANGENT":1,"TEXCOORD_0":3},"indices":4,"material":0,"mode":4},{"attributes":{"NORMAL":7,"POSITION":5,"TANGENT":6,"TEXCOORD_0":8},"indices":9,"material":1,"mode":4},{"attributes":{"NORMAL":12,"POSITION":10,"TANGENT":11,"TEXCOORD_0":13},"indices":14,"material":2,"mode":4},{"attributes":{"NORMAL":17,"POSITION":15,"TANGENT":16,"TEXCOORD_0":18},"indices":19,"material":3,"mode":4},{"attributes":{"NORMAL":22,"POSITION":20,"TANGENT":21,"TEXCOORD_0":23},"indices":24,"material":4,"mode":4},{"attributes":{"NORMAL":27,"POSITION":25,"TANGENT":26,"TEXCOORD_0":28},"indices":29,"material":5,"mode":4}]}],"nodes":[{"children":[1],"extensions":{},"name":"SemiHorse"},{"extensions":{},"mesh":0,"name":"Cubehorse","translation":[-0.44025099277496,0,-0.77293419837952]}],"scene":0,"scenes":[{"nodes":[0]}]}